<?xml version="1.0" encoding="utf-8"?>
<!-- Generator: Adobe Illustrator 22.1.0, SVG Export Plug-In . SVG Version: 6.00 Build 0)  -->
<svg version="1.1" id="Слой_1" xmlns="http://www.w3.org/2000/svg" xmlns:xlink="http://www.w3.org/1999/xlink" x="0px" y="0px"
	 viewBox="0 0 19 19" style="enable-background:new 0 0 19 19;" xml:space="preserve">
<style type="text/css">
	.st0{fill:#FFFFFF;}
</style>
<g>
	<path class="st0" d="M9.2,13.2L8.3,14c-0.1,0.1-0.4,0.1-0.5,0l-3.7-3.7C4,10.2,4,10,4.1,9.8L5,9c0.1-0.1,0.4-0.1,0.5,0l3.7,3.7
		C9.3,12.8,9.3,13,9.2,13.2z"/>
	<path class="st0" d="M7.8,14l-0.9-0.9c-0.1-0.1-0.1-0.4,0-0.5l7.2-7.2c0.1-0.1,0.4-0.1,0.5,0l0.9,0.9c0.1,0.1,0.1,0.4,0,0.5L8.3,14
		C8.2,14.2,7.9,14.2,7.8,14z"/>
</g>
</svg>
